<?xml version="1.0" encoding="utf-8"?>
<!-- Generator: Adobe Illustrator 16.0.3, SVG Export Plug-In . SVG Version: 6.00 Build 0)  -->
<!DOCTYPE svg PUBLIC "-//W3C//DTD SVG 1.1//EN" "http://www.w3.org/Graphics/SVG/1.1/DTD/svg11.dtd">
<svg version="1.1" id="Layer_1" xmlns="http://www.w3.org/2000/svg" xmlns:xlink="http://www.w3.org/1999/xlink" x="0px" y="0px"
	 width="32.248px" height="32.248px" viewBox="0 0 32.248 32.248" enable-background="new 0 0 32.248 32.248" xml:space="preserve">
<g>
	<path d="M1.375,14.276c0.451,6.447,6.042,11.306,12.488,10.856c2.774-0.193,5.251-1.346,7.142-3.102l8.254,7.174
		c0.52,0.451,1.308,0.396,1.758-0.123c0.451-0.519,0.396-1.307-0.123-1.758l-8.254-7.174c1.477-2.118,2.271-4.732,2.078-7.506
		C24.267,6.197,18.677,1.337,12.23,1.788C5.785,2.239,0.924,7.829,1.375,14.276z M22.923,12.769
		c0.381,5.445-3.74,10.186-9.186,10.568C8.291,23.716,3.551,19.596,3.171,14.15C2.79,8.705,6.91,3.964,12.356,3.584
		C17.802,3.203,22.541,7.324,22.923,12.769z"/>
</g>
</svg>
